# 3ds Max Wavefront OBJ Exporter v0.99 - (c)2007 guruware
# File Created: 19.11.2023 22:39:28

mtllib maquinaPinball3.mtl

#
# object Box001
#

#
# object Box002
#

#
# object Box003
#

#
# object Box004
#

#
# object Box005
#

#
# object Box007
#

#
# object Box008
#

#
# object Box009
#

#
# object Object
#

v  15.8549 1.2499 60.3809
v  15.8549 23.4046 60.3613
v  18.1760 23.4046 60.3613
v  18.1760 1.2499 60.3809
v  15.8549 1.2503 60.8701
v  18.1760 1.2503 60.8701
v  18.1760 23.4050 60.8504
v  15.8549 23.4050 60.8504
# 8 vertices

vn 0.0000 -0.0009 -1.0000
vn 0.0000 0.0009 1.0000
vn 0.0000 -1.0000 0.0009
vn 1.0000 0.0000 -0.0000
vn 0.0000 1.0000 -0.0009
vn -1.0000 0.0000 -0.0000
# 6 vertex normals

vt 1.0000 0.0000 0.0000
vt 1.0000 1.0000 0.0000
vt 0.0000 1.0000 0.0000
vt 0.0000 0.0000 0.0000
# 4 texture coords

o Object
g Object
usemtl 14___Default
s 2
f 1/1/1 2/2/1 3/3/1 
f 3/3/1 4/4/1 1/1/1 
s 4
f 5/4/2 6/1/2 7/2/2 
f 7/2/2 8/3/2 5/4/2 
s 8
f 1/4/3 4/1/3 6/2/3 
f 6/2/3 5/3/3 1/4/3 
s 16
f 4/4/4 3/1/4 7/2/4 
f 7/2/4 6/3/4 4/4/4 
s 32
f 3/4/5 2/1/5 8/2/5 
f 8/2/5 7/3/5 3/4/5 
s 64
f 2/4/6 1/1/6 5/2/6 
f 5/2/6 8/3/6 2/4/6 
# 12 faces

#
# object Object002
#

v  15.8549 1.2499 42.1349
v  15.8549 23.4046 42.1152
v  18.1760 23.4046 42.1152
v  18.1760 1.2499 42.1349
v  15.8549 1.2503 42.6240
v  18.1760 1.2503 42.6240
v  18.1760 23.4050 42.6043
v  15.8549 23.4050 42.6043
# 8 vertices

vn 0.0000 -0.0009 -1.0000
vn 0.0000 0.0009 1.0000
vn 0.0000 -1.0000 0.0009
vn 1.0000 0.0000 -0.0000
vn 0.0000 1.0000 -0.0009
vn -1.0000 0.0000 -0.0000
# 6 vertex normals

vt 1.0000 0.0000 0.0000
vt 1.0000 1.0000 0.0000
vt 0.0000 1.0000 0.0000
vt 0.0000 0.0000 0.0000
# 4 texture coords

o Object002
g Object002
usemtl 14___Default
s 2
f 9/5/7 10/6/7 11/7/7 
f 11/7/7 12/8/7 9/5/7 
s 4
f 13/8/8 14/5/8 15/6/8 
f 15/6/8 16/7/8 13/8/8 
s 8
f 9/8/9 12/5/9 14/6/9 
f 14/6/9 13/7/9 9/8/9 
s 16
f 12/8/10 11/5/10 15/6/10 
f 15/6/10 14/7/10 12/8/10 
s 32
f 11/8/11 10/5/11 16/6/11 
f 16/6/11 15/7/11 11/8/11 
s 64
f 10/8/12 9/5/12 13/6/12 
f 13/6/12 16/7/12 10/8/12 
# 12 faces

#
# object Object004
#

v  -20.6296 23.2719 65.6535
v  -20.7227 30.1720 65.7755
v  18.9001 30.6736 61.0673
v  18.9932 23.7735 60.9454
v  -20.5785 23.2520 66.0813
v  19.0443 23.7537 61.3731
v  18.9512 30.6537 61.4951
v  -20.6716 30.1521 66.2032
# 8 vertices

vn -0.1186 0.0461 -0.9919
vn 0.1186 -0.0461 0.9919
vn 0.0135 -0.9998 -0.0177
vn 0.9929 0.0126 -0.1180
vn -0.0135 0.9998 0.0177
vn -0.9929 -0.0126 0.1180
# 6 vertex normals

vt 1.0000 0.0000 0.0000
vt 1.0000 1.0000 0.0000
vt 0.0000 1.0000 0.0000
vt 0.0000 0.0000 0.0000
# 4 texture coords

o Object004
g Object004
usemtl 08___Default
s 2
f 17/9/13 18/10/13 19/11/13 
f 19/11/13 20/12/13 17/9/13 
s 4
f 21/12/14 22/9/14 23/10/14 
f 23/10/14 24/11/14 21/12/14 
s 8
f 17/12/15 20/9/15 22/10/15 
f 22/10/15 21/11/15 17/12/15 
s 16
f 20/12/16 19/9/16 23/10/16 
f 23/10/16 22/11/16 20/12/16 
s 32
f 19/12/17 18/9/17 24/10/17 
f 24/10/17 23/11/17 19/12/17 
s 64
f 18/12/18 17/9/18 21/10/18 
f 21/10/18 24/11/18 18/12/18 
# 12 faces

#
# object Object006
#

v  20.3080 23.7507 61.1596
v  20.3080 23.7507 42.1814
v  19.8159 30.6417 42.1814
v  19.8159 30.6417 61.1596
v  17.7659 23.7434 61.1596
v  17.2737 30.6344 61.1596
v  17.2737 30.6344 42.1814
v  17.7659 23.7434 42.1814
# 8 vertices

vn 1.0000 0.0029 -0.0000
vn -1.0000 -0.0029 -0.0000
vn 0.0000 0.0000 1.0000
vn -0.0712 0.9975 -0.0000
vn 0.0000 0.0000 -1.0000
vn 0.0712 -0.9975 -0.0000
# 6 vertex normals

vt 0.0000 -0.0000 0.0000
vt 1.0000 -0.0000 0.0000
vt 1.0000 1.0000 0.0000
vt -0.0000 1.0000 0.0000
# 4 texture coords

o Object006
g Object006
usemtl 13___Default
s 2
f 25/13/19 26/14/19 27/15/19 
f 27/15/19 28/16/19 25/13/19 
s 4
f 29/16/20 30/13/20 31/14/20 
f 31/14/20 32/15/20 29/16/20 
s 8
f 25/16/21 28/13/21 30/14/21 
f 30/14/21 29/15/21 25/16/21 
s 16
f 28/16/22 27/13/22 31/14/22 
f 31/14/22 30/15/22 28/16/22 
s 32
f 27/16/23 26/13/23 32/14/23 
f 32/14/23 31/15/23 27/16/23 
s 64
f 26/16/24 25/13/24 29/14/24 
f 29/14/24 32/15/24 26/16/24 
# 12 faces

#
# object Object008
#

v  -21.0556 23.0862 66.3507
v  18.7463 23.0862 41.8066
v  18.7463 23.0862 61.5476
v  -21.0556 23.6773 66.3507
v  18.7463 23.6773 41.7913
v  -21.0556 23.6773 36.4999
v  18.7463 23.6773 61.3387
v  -21.0556 23.0862 36.4999
# 8 vertices

vn 0.0000 -1.0000 -0.0000
vn 0.0000 1.0000 -0.0000
vn 0.1249 0.0033 0.9922
vn 0.1132 0.3281 0.9378
vn 0.1249 0.0000 0.9922
vn 1.0000 0.0000 -0.0000
vn 0.1317 -0.0254 -0.9910
vn 0.1322 0.0000 -0.9912
vn 0.1322 -0.0002 -0.9912
vn 0.1317 -0.0256 -0.9910
vn -1.0000 0.0000 -0.0000
vn 0.1130 0.3311 0.9368
# 12 vertex normals

vt 0.0064 0.0076 0.0000
vt 1.0109 1.0010 0.0000
vt 0.0064 1.0010 0.0000
vt 1.0109 0.0076 0.0000
# 4 texture coords

o Object008
g Object008
usemtl 03___Default
s 2
f 33/17/25 34/18/25 35/19/25 
s 4
f 36/19/26 37/20/26 38/18/26 
s 8
f 33/19/27 39/20/28 36/18/29 
s 16
f 35/19/30 37/20/30 39/18/30 
s 32
f 34/19/31 40/17/32 38/20/33 
f 38/20/33 37/18/34 34/19/31 
s 64
f 40/19/35 33/17/35 36/20/35 
f 36/20/35 38/18/35 40/19/35 
s 2
f 33/17/25 40/20/25 34/18/25 
s 4
f 36/19/26 39/17/26 37/20/26 
s 8
f 33/19/27 35/17/36 39/20/28 
s 16
f 35/19/30 34/17/30 37/20/30 
# 12 faces

#
# object Object010
#

v  -20.4409 23.3788 66.4654
v  -20.4409 23.3788 36.4992
v  -20.6490 30.6782 36.4992
v  -20.6490 30.6782 66.4654
v  -21.1231 23.3776 66.4654
v  -21.3312 30.6771 66.4654
v  -21.3312 30.6771 36.4992
v  -21.1231 23.3776 36.4992
# 8 vertices

vn 1.0000 0.0017 -0.0000
vn -1.0000 -0.0017 -0.0000
vn 0.0000 0.0000 1.0000
vn -0.0285 0.9996 -0.0000
vn 0.0000 0.0000 -1.0000
vn 0.0285 -0.9996 -0.0000
# 6 vertex normals

vt 1.0000 0.0000 0.0000
vt 1.0000 1.0000 0.0000
vt 0.0000 1.0000 0.0000
vt 0.0000 0.0000 0.0000
# 4 texture coords

o Object010
g Object010
usemtl 09___Default
s 2
f 41/21/37 42/22/37 43/23/37 
f 43/23/37 44/24/37 41/21/37 
s 4
f 45/24/38 46/21/38 47/22/38 
f 47/22/38 48/23/38 45/24/38 
s 8
f 41/24/39 44/21/39 46/22/39 
f 46/22/39 45/23/39 41/24/39 
s 16
f 44/24/40 43/21/40 47/22/40 
f 47/22/40 46/23/40 44/24/40 
s 32
f 43/24/41 42/21/41 48/22/41 
f 48/22/41 47/23/41 43/24/41 
s 64
f 42/24/42 41/21/42 45/22/42 
f 45/22/42 48/23/42 42/24/42 
# 12 faces

#
# object Object012
#

v  -33.4202 1.8053 37.4494
v  -33.4202 23.9600 37.4297
v  -31.0991 23.9600 37.4297
v  -31.0991 1.8053 37.4494
v  -33.4202 1.8057 37.9385
v  -31.0991 1.8057 37.9385
v  -31.0991 23.9604 37.9188
v  -33.4202 23.9604 37.9188
# 8 vertices

vn 0.0000 -0.0009 -1.0000
vn 0.0000 0.0009 1.0000
vn 0.0000 -1.0000 0.0009
vn 1.0000 0.0000 -0.0000
vn 0.0000 1.0000 -0.0009
vn -1.0000 0.0000 -0.0000
# 6 vertex normals

vt 1.0000 0.0000 0.0000
vt 1.0000 1.0000 0.0000
vt 0.0000 1.0000 0.0000
vt 0.0000 0.0000 0.0000
# 4 texture coords

o Object012
g Object012
usemtl 14___Default
s 2
f 49/25/43 50/26/43 51/27/43 
f 51/27/43 52/28/43 49/25/43 
s 4
f 53/28/44 54/25/44 55/26/44 
f 55/26/44 56/27/44 53/28/44 
s 8
f 49/28/45 52/25/45 54/26/45 
f 54/26/45 53/27/45 49/28/45 
s 16
f 52/28/46 51/25/46 55/26/46 
f 55/26/46 54/27/46 52/28/46 
s 32
f 51/28/47 50/25/47 56/26/47 
f 56/26/47 55/27/47 51/28/47 
s 64
f 50/28/48 49/25/48 53/26/48 
f 53/26/48 56/27/48 50/28/48 
# 12 faces

#
# object Object014
#

v  -20.5853 23.2719 36.5294
v  -20.7056 30.1720 36.6247
v  18.8557 30.6736 41.8246
v  18.9760 23.7735 41.7293
v  -20.6411 23.2520 36.9565
v  18.9202 23.7537 42.1565
v  18.7999 30.6537 42.2517
v  -20.7614 30.1521 37.0518
# 8 vertices

vn 0.1295 0.0461 -0.9905
vn -0.1295 -0.0461 0.9905
vn 0.0174 -0.9998 -0.0138
vn 0.9914 0.0126 0.1303
vn -0.0174 0.9998 0.0138
vn -0.9914 -0.0126 -0.1303
# 6 vertex normals

vt 1.0000 0.0000 0.0000
vt 1.0000 1.0000 0.0000
vt 0.0000 1.0000 0.0000
vt 0.0000 0.0000 0.0000
# 4 texture coords

o Object014
g Object014
usemtl 07___Default
s 2
f 57/29/49 58/30/49 59/31/49 
f 59/31/49 60/32/49 57/29/49 
s 4
f 61/32/50 62/29/50 63/30/50 
f 63/30/50 64/31/50 61/32/50 
s 8
f 57/32/51 60/29/51 62/30/51 
f 62/30/51 61/31/51 57/32/51 
s 16
f 60/32/52 59/29/52 63/30/52 
f 63/30/52 62/31/52 60/32/52 
s 32
f 59/32/53 58/29/53 64/30/53 
f 64/30/53 63/31/53 59/32/53 
s 64
f 58/32/54 57/29/54 61/30/54 
f 61/30/54 64/31/54 58/32/54 
# 12 faces

#
# object Object016
#

v  -33.3229 1.8346 65.2422
v  -33.3229 23.9893 65.2225
v  -31.0018 23.9893 65.2225
v  -31.0018 1.8346 65.2422
v  -33.3229 1.8350 65.7313
v  -31.0018 1.8350 65.7313
v  -31.0018 23.9898 65.7116
v  -33.3229 23.9898 65.7116
# 8 vertices

vn 0.0000 -0.0009 -1.0000
vn 0.0000 0.0009 1.0000
vn 0.0000 -1.0000 0.0009
vn 1.0000 0.0000 -0.0000
vn 0.0000 1.0000 -0.0009
vn -1.0000 0.0000 -0.0000
# 6 vertex normals

vt 1.0000 0.0000 0.0000
vt 1.0000 1.0000 0.0000
vt 0.0000 1.0000 0.0000
vt 0.0000 0.0000 0.0000
# 4 texture coords

o Object016
g Object016
usemtl 14___Default
s 2
f 65/33/55 66/34/55 67/35/55 
f 67/35/55 68/36/55 65/33/55 
s 4
f 69/36/56 70/33/56 71/34/56 
f 71/34/56 72/35/56 69/36/56 
s 8
f 65/36/57 68/33/57 70/34/57 
f 70/34/57 69/35/57 65/36/57 
s 16
f 68/36/58 67/33/58 71/34/58 
f 71/34/58 70/35/58 68/36/58 
s 32
f 67/36/59 66/33/59 72/34/59 
f 72/34/59 71/35/59 67/36/59 
s 64
f 66/36/60 65/33/60 69/34/60 
f 69/34/60 72/35/60 66/36/60 
# 12 faces

#
# object Box010
#

v  12.4419 24.4317 61.7198
v  15.4933 24.4317 48.3916
v  15.7096 24.4317 48.4411
v  12.6582 24.4317 61.7693
v  12.4419 28.0519 61.7198
v  12.6582 28.0519 61.7693
v  15.7096 28.0519 48.4411
v  15.4933 28.0519 48.3916
# 8 vertices

vn 0.0000 -1.0000 -0.0000
vn 0.0000 1.0000 -0.0000
vn -0.2232 0.0000 0.9748
vn 0.9748 0.0000 0.2232
vn 0.2232 0.0000 -0.9748
vn -0.9748 0.0000 -0.2232
# 6 vertex normals

vt 1.0000 0.0000 0.0000
vt 1.0000 1.0000 0.0000
vt 0.0000 1.0000 0.0000
vt 0.0000 0.0000 0.0000
# 4 texture coords

o Box010
g Box010
usemtl wire_153228153
s 2
f 73/37/61 74/38/61 75/39/61 
f 75/39/61 76/40/61 73/37/61 
s 4
f 77/40/62 78/37/62 79/38/62 
f 79/38/62 80/39/62 77/40/62 
s 8
f 73/40/63 76/37/63 78/38/63 
f 78/38/63 77/39/63 73/40/63 
s 16
f 76/40/64 75/37/64 79/38/64 
f 79/38/64 78/39/64 76/40/64 
s 32
f 75/40/65 74/37/65 80/38/65 
f 80/38/65 79/39/65 75/40/65 
s 64
f 74/40/66 73/37/66 77/38/66 
f 77/38/66 80/39/66 74/40/66 
# 12 faces

#
# object Box011
#

v  20.1820 27.0437 57.5812
v  20.2478 27.0427 58.9505
v  20.3183 28.4360 58.5955
v  20.2738 28.9246 57.5812
v  20.2478 27.0427 56.2119
v  20.3183 28.4360 56.5669
v  20.2797 25.6481 56.5669
v  20.2218 25.1609 57.5812
v  20.2797 25.6481 58.5955
v  20.4451 27.0400 58.9549
v  20.4712 29.5031 58.9505
v  20.4191 25.1581 58.9505
v  20.5720 26.1716 57.7616
v  20.6425 27.0052 57.7671
v  20.6106 27.7974 57.7686
v  20.4104 25.1212 57.5812
v  20.4191 25.1581 56.2119
v  20.5720 26.1861 57.3986
v  20.6165 26.1788 57.5812
v  20.4451 27.0087 56.1552
v  20.4712 29.5248 56.2119
v  20.6106 27.8094 57.4027
v  20.6425 27.0373 57.4051
v  20.4799 29.5492 57.5812
v  20.6685 27.8132 57.5812
# 25 vertices

vn -0.9999 0.0138 -0.0000
vn -0.6790 0.0928 0.7282
vn -0.9748 0.0552 0.2161
vn -0.9802 0.1926 -0.0457
vn -0.7719 -0.0537 -0.6334
vn -0.9892 0.1051 -0.1021
vn -0.9751 -0.0647 -0.2120
vn -0.7366 -0.6634 0.1319
vn -0.9802 -0.1432 0.1369
vn 0.6159 0.0623 0.7854
vn 0.0425 0.7208 0.6919
vn 0.0501 -0.7485 0.6612
vn 0.9799 0.0519 0.1926
vn 0.9878 -0.0408 0.1505
vn 0.9899 0.0650 0.1263
vn 0.5055 -0.8531 0.1293
vn 0.0619 -0.6654 -0.7439
vn 0.9868 -0.1282 -0.0991
vn 0.9890 -0.1272 -0.0761
vn 0.5012 -0.0907 -0.8606
vn 0.0237 0.7843 -0.6199
vn 0.9749 -0.0554 -0.2155
vn 0.9903 0.0000 -0.1388
vn 0.0960 0.9915 -0.0874
vn 0.9971 0.0376 0.0659
# 25 vertex normals

vt 0.5000 0.5000 0.0000
vt 0.5000 0.0000 0.0000
vt 1.0000 0.0000 0.0000
vt 1.0000 0.5000 0.0000
vt 0.5000 1.0000 0.0000
vt 1.0000 1.0000 0.0000
vt 0.0000 1.0000 0.0000
vt 0.0000 0.5000 0.0000
vt 0.0000 0.0000 0.0000
# 9 texture coords

o Box011
g Box011
usemtl wire_028089177
s 1
f 81/41/67 82/42/68 83/43/69 
f 83/43/69 84/44/70 81/41/67 
f 85/45/71 81/41/67 84/44/70 
f 84/44/70 86/46/72 85/45/71 
f 81/41/67 85/45/71 87/47/73 
f 87/47/73 88/48/74 81/41/67 
f 82/42/68 81/41/67 88/48/74 
f 88/48/74 89/49/75 82/42/68 
f 90/41/76 91/48/77 83/49/69 
f 83/49/69 82/42/68 90/41/76 
f 92/44/78 90/41/76 82/42/68 
f 82/42/68 89/43/75 92/44/78 
f 90/41/76 92/44/78 93/46/79 
f 93/46/79 94/45/80 90/41/76 
f 91/48/77 90/41/76 94/45/80 
f 94/45/80 95/47/81 91/48/77 
f 96/41/82 92/48/78 89/49/75 
f 89/49/75 88/42/74 96/41/82 
f 97/44/83 96/41/82 88/42/74 
f 88/42/74 87/43/73 97/44/83 
f 96/41/82 97/44/83 98/46/84 
f 98/46/84 99/45/85 96/41/82 
f 92/48/78 96/41/82 99/45/85 
f 99/45/85 93/47/79 92/48/78 
f 100/41/86 97/48/83 87/49/73 
f 87/49/73 85/42/71 100/41/86 
f 101/44/87 100/41/86 85/42/71 
f 85/42/71 86/43/72 101/44/87 
f 100/41/86 101/44/87 102/46/88 
f 102/46/88 103/45/89 100/41/86 
f 97/48/83 100/41/86 103/45/89 
f 103/45/89 98/47/84 97/48/83 
f 104/41/90 101/48/87 86/49/72 
f 86/49/72 84/42/70 104/41/90 
f 91/44/77 104/41/90 84/42/70 
f 84/42/70 83/43/69 91/44/77 
f 104/41/90 91/44/77 95/46/81 
f 95/46/81 105/45/91 104/41/90 
f 101/48/87 104/41/90 105/45/91 
f 105/45/91 102/47/88 101/48/87 
# 40 faces

#
# object Box012
#

v  -33.6459 23.9765 66.6268
v  -33.6459 23.9765 36.2927
v  -20.7004 23.9765 36.2927
v  -20.7004 23.9765 66.6268
v  -33.6459 53.5579 66.6268
v  -20.7004 53.5579 66.6268
v  -20.7004 53.5579 36.2927
v  -33.6459 53.5579 36.2927
# 8 vertices

vn 0.0000 -1.0000 -0.0000
vn 0.0000 1.0000 -0.0000
vn 0.0000 0.0000 1.0000
vn 1.0000 0.0000 -0.0000
vn 0.0000 0.0000 -1.0000
vn -1.0000 0.0000 -0.0000
# 6 vertex normals

vt 1.0000 0.0000 0.0000
vt 1.0000 1.0000 0.0000
vt 0.0000 1.0000 0.0000
vt 0.0000 0.0000 0.0000
# 4 texture coords

o Box012
g Box012
usemtl 01___Default
s 2
f 106/50/92 107/51/92 108/52/92 
f 108/52/92 109/53/92 106/50/92 
s 4
f 110/53/93 111/50/93 112/51/93 
f 112/51/93 113/52/93 110/53/93 
s 8
f 106/53/94 109/50/94 111/51/94 
f 111/51/94 110/52/94 106/53/94 
s 16
f 109/53/95 108/50/95 112/51/95 
f 112/51/95 111/52/95 109/53/95 
s 32
f 108/53/96 107/50/96 113/51/96 
f 113/51/96 112/52/96 108/53/96 
s 64
f 107/53/97 106/50/97 110/51/97 
f 110/51/97 113/52/97 107/53/97 
# 12 faces

