# 3ds Max Wavefront OBJ Exporter v0.99 - (c)2007 guruware
# File Created: 19.10.2023 10:25:08

mtllib moneda.mtl

#
# object Cylinder001
#

v  -0.1104 0.8102 0.0417
v  0.7040 0.5138 0.0467
v  0.7563 0.8102 0.0417
v  0.5535 0.2532 0.0511
v  0.3229 0.0597 0.0544
v  0.0401 -0.0432 0.0561
v  -0.2609 -0.0432 0.0561
v  -0.5438 0.0597 0.0544
v  -0.7744 0.2532 0.0511
v  -0.9249 0.5138 0.0467
v  -0.9772 0.8102 0.0417
v  -0.9249 1.1066 0.0367
v  -0.7744 1.3673 0.0323
v  -0.5438 1.5607 0.0291
v  -0.2609 1.6637 0.0273
v  0.0401 1.6637 0.0273
v  0.3229 1.5607 0.0291
v  0.5535 1.3673 0.0323
v  0.7040 1.1066 0.0367
v  0.7040 0.5130 -0.0011
v  0.7563 0.8094 -0.0061
v  0.5535 0.2524 0.0033
v  0.3229 0.0589 0.0066
v  0.0401 -0.0440 0.0083
v  -0.2609 -0.0440 0.0083
v  -0.5438 0.0589 0.0066
v  -0.7744 0.2524 0.0033
v  -0.9249 0.5130 -0.0011
v  -0.9772 0.8094 -0.0061
v  -0.9249 1.1058 -0.0111
v  -0.7744 1.3665 -0.0155
v  -0.5438 1.5599 -0.0187
v  -0.2609 1.6628 -0.0205
v  0.0401 1.6628 -0.0205
v  0.3229 1.5599 -0.0187
v  0.5535 1.3665 -0.0155
v  0.7040 1.1058 -0.0111
v  0.7040 0.5122 -0.0489
v  0.7563 0.8086 -0.0539
v  0.5535 0.2516 -0.0445
v  0.3229 0.0581 -0.0412
v  0.0401 -0.0448 -0.0394
v  -0.2609 -0.0448 -0.0394
v  -0.5438 0.0581 -0.0412
v  -0.7744 0.2516 -0.0445
v  -0.9249 0.5122 -0.0489
v  -0.9772 0.8086 -0.0539
v  -0.9249 1.1050 -0.0589
v  -0.7744 1.3656 -0.0633
v  -0.5438 1.5591 -0.0665
v  -0.2609 1.6620 -0.0683
v  0.0401 1.6620 -0.0683
v  0.3229 1.5591 -0.0665
v  0.5535 1.3656 -0.0633
v  0.7040 1.1050 -0.0589
v  0.7040 0.5114 -0.0966
v  0.7563 0.8078 -0.1016
v  0.5535 0.2508 -0.0922
v  0.3229 0.0573 -0.0890
v  0.0401 -0.0456 -0.0872
v  -0.2609 -0.0456 -0.0872
v  -0.5438 0.0573 -0.0890
v  -0.7744 0.2508 -0.0922
v  -0.9249 0.5114 -0.0966
v  -0.9772 0.8078 -0.1016
v  -0.9249 1.1042 -0.1067
v  -0.7744 1.3648 -0.1111
v  -0.5438 1.5583 -0.1143
v  -0.2609 1.6612 -0.1161
v  0.0401 1.6612 -0.1161
v  0.3229 1.5583 -0.1143
v  0.5535 1.3648 -0.1111
v  0.7040 1.1042 -0.1067
v  0.7040 0.5106 -0.1444
v  0.7563 0.8070 -0.1494
v  0.5535 0.2500 -0.1400
v  0.3229 0.0565 -0.1368
v  0.0401 -0.0464 -0.1350
v  -0.2609 -0.0464 -0.1350
v  -0.5438 0.0565 -0.1368
v  -0.7744 0.2500 -0.1400
v  -0.9249 0.5106 -0.1444
v  -0.9772 0.8070 -0.1494
v  -0.9249 1.1034 -0.1544
v  -0.7744 1.3640 -0.1588
v  -0.5438 1.5575 -0.1621
v  -0.2609 1.6604 -0.1639
v  0.0401 1.6604 -0.1639
v  0.3229 1.5575 -0.1621
v  0.5535 1.3640 -0.1588
v  0.7040 1.1034 -0.1544
v  0.7040 0.5098 -0.1922
v  0.7563 0.8062 -0.1972
v  0.5535 0.2491 -0.1878
v  0.3229 0.0557 -0.1846
v  0.0401 -0.0473 -0.1828
v  -0.2609 -0.0473 -0.1828
v  -0.5438 0.0557 -0.1846
v  -0.7744 0.2491 -0.1878
v  -0.9249 0.5098 -0.1922
v  -0.9772 0.8062 -0.1972
v  -0.9249 1.1026 -0.2022
v  -0.7744 1.3632 -0.2066
v  -0.5438 1.5567 -0.2099
v  -0.2609 1.6596 -0.2116
v  0.0401 1.6596 -0.2116
v  0.3229 1.5567 -0.2099
v  0.5535 1.3632 -0.2066
v  0.7040 1.1026 -0.2022
v  -0.1104 0.8062 -0.1972
# 110 vertices

vn 0.0000 0.0169 0.9999
vn 1.0000 0.0000 -0.0000
vn 0.9397 -0.3420 0.0058
vn 0.7660 -0.6427 0.0109
vn 0.5000 -0.8659 0.0146
vn 0.1736 -0.9847 0.0166
vn -0.1736 -0.9847 0.0166
vn -0.5000 -0.8659 0.0146
vn -0.7660 -0.6427 0.0109
vn -0.9397 -0.3420 0.0058
vn -1.0000 -0.0000 0.0000
vn -0.9397 0.3420 -0.0058
vn -0.7660 0.6427 -0.0109
vn -0.5000 0.8659 -0.0146
vn -0.1736 0.9847 -0.0166
vn 0.1736 0.9847 -0.0166
vn 0.5000 0.8659 -0.0146
vn 0.7660 0.6427 -0.0109
vn 0.9397 0.3420 -0.0058
vn -1.0000 -0.0000 -0.0000
vn 1.0000 0.0000 0.0000
vn 0.0000 -0.0169 -0.9999
# 22 vertex normals

vt 0.5000 0.0000 0.0000
vt 0.8056 0.0000 1.0000
vt 0.7500 0.0000 1.0000
vt 0.8611 0.0000 1.0000
vt 0.9167 0.0000 1.0000
vt 0.9722 0.0000 1.0000
vt 0.0278 0.0000 1.0000
vt -0.0278 0.0000 1.0000
vt 0.0833 0.0000 1.0000
vt 0.1389 0.0000 1.0000
vt 0.1944 0.0000 1.0000
vt 0.2500 0.0000 1.0000
vt 0.3056 0.0000 1.0000
vt 0.3611 0.0000 1.0000
vt 0.4167 0.0000 1.0000
vt 0.4722 0.0000 1.0000
vt 0.5278 0.0000 1.0000
vt 0.5833 0.0000 1.0000
vt 0.6389 0.0000 1.0000
vt 0.6944 0.0000 1.0000
vt 0.8056 0.2000 1.0000
vt 0.7500 0.2000 1.0000
vt 0.8611 0.2000 1.0000
vt 0.9167 0.2000 1.0000
vt 0.9722 0.2000 1.0000
vt 0.0278 0.2000 1.0000
vt -0.0278 0.2000 1.0000
vt 0.0833 0.2000 1.0000
vt 0.1389 0.2000 1.0000
vt 0.1944 0.2000 1.0000
vt 0.2500 0.2000 1.0000
vt 0.3056 0.2000 1.0000
vt 0.3611 0.2000 1.0000
vt 0.4167 0.2000 1.0000
vt 0.4722 0.2000 1.0000
vt 0.5278 0.2000 1.0000
vt 0.5833 0.2000 1.0000
vt 0.6389 0.2000 1.0000
vt 0.6944 0.2000 1.0000
vt 0.8056 0.4000 1.0000
vt 0.7500 0.4000 1.0000
vt 0.8611 0.4000 1.0000
vt 0.9167 0.4000 1.0000
vt 0.9722 0.4000 1.0000
vt 0.0278 0.4000 1.0000
vt -0.0278 0.4000 1.0000
vt 0.0833 0.4000 1.0000
vt 0.1389 0.4000 1.0000
vt 0.1944 0.4000 1.0000
vt 0.2500 0.4000 1.0000
vt 0.3056 0.4000 1.0000
vt 0.3611 0.4000 1.0000
vt 0.4167 0.4000 1.0000
vt 0.4722 0.4000 1.0000
vt 0.5278 0.4000 1.0000
vt 0.5833 0.4000 1.0000
vt 0.6389 0.4000 1.0000
vt 0.6944 0.4000 1.0000
vt 0.8056 0.6000 1.0000
vt 0.7500 0.6000 1.0000
vt 0.8611 0.6000 1.0000
vt 0.9167 0.6000 1.0000
vt 0.9722 0.6000 1.0000
vt 0.0278 0.6000 1.0000
vt -0.0278 0.6000 1.0000
vt 0.0833 0.6000 1.0000
vt 0.1389 0.6000 1.0000
vt 0.1944 0.6000 1.0000
vt 0.2500 0.6000 1.0000
vt 0.3056 0.6000 1.0000
vt 0.3611 0.6000 1.0000
vt 0.4167 0.6000 1.0000
vt 0.4722 0.6000 1.0000
vt 0.5278 0.6000 1.0000
vt 0.5833 0.6000 1.0000
vt 0.6389 0.6000 1.0000
vt 0.6944 0.6000 1.0000
vt 0.8056 0.8000 1.0000
vt 0.7500 0.8000 1.0000
vt 0.8611 0.8000 1.0000
vt 0.9167 0.8000 1.0000
vt 0.9722 0.8000 1.0000
vt 0.0278 0.8000 1.0000
vt -0.0278 0.8000 1.0000
vt 0.0833 0.8000 1.0000
vt 0.1389 0.8000 1.0000
vt 0.1944 0.8000 1.0000
vt 0.2500 0.8000 1.0000
vt 0.3056 0.8000 1.0000
vt 0.3611 0.8000 1.0000
vt 0.4167 0.8000 1.0000
vt 0.4722 0.8000 1.0000
vt 0.5278 0.8000 1.0000
vt 0.5833 0.8000 1.0000
vt 0.6389 0.8000 1.0000
vt 0.6944 0.8000 1.0000
vt 0.8056 1.0000 1.0000
vt 0.7500 1.0000 1.0000
vt 0.8611 1.0000 1.0000
vt 0.9167 1.0000 1.0000
vt 0.9722 1.0000 1.0000
vt 0.0278 1.0000 1.0000
vt -0.0278 1.0000 1.0000
vt 0.0833 1.0000 1.0000
vt 0.1389 1.0000 1.0000
vt 0.1944 1.0000 1.0000
vt 0.2500 1.0000 1.0000
vt 0.3056 1.0000 1.0000
vt 0.3611 1.0000 1.0000
vt 0.4167 1.0000 1.0000
vt 0.4722 1.0000 1.0000
vt 0.5278 1.0000 1.0000
vt 0.5833 1.0000 1.0000
vt 0.6389 1.0000 1.0000
vt 0.6944 1.0000 1.0000
vt 0.5000 1.0000 0.0000
# 116 texture coords

o Cylinder001
g Cylinder001
usemtl wire_028089177
s 1
f 1/1/1 2/2/1 3/3/1 
f 1/1/1 4/4/1 2/2/1 
f 1/1/1 5/5/1 4/4/1 
f 1/1/1 6/6/1 5/5/1 
f 1/1/1 7/7/1 6/8/1 
f 1/1/1 8/9/1 7/7/1 
f 1/1/1 9/10/1 8/9/1 
f 1/1/1 10/11/1 9/10/1 
f 1/1/1 11/12/1 10/11/1 
f 1/1/1 12/13/1 11/12/1 
f 1/1/1 13/14/1 12/13/1 
f 1/1/1 14/15/1 13/14/1 
f 1/1/1 15/16/1 14/15/1 
f 1/1/1 16/17/1 15/16/1 
f 1/1/1 17/18/1 16/17/1 
f 1/1/1 18/19/1 17/18/1 
f 1/1/1 19/20/1 18/19/1 
f 1/1/1 3/3/1 19/20/1 
s 8
f 3/3/2 20/21/3 21/22/2 
f 3/3/2 2/2/3 20/21/3 
f 2/2/3 22/23/4 20/21/3 
f 2/2/3 4/4/4 22/23/4 
f 4/4/4 23/24/5 22/23/4 
f 4/4/4 5/5/5 23/24/5 
f 5/5/5 24/25/6 23/24/5 
f 5/5/5 6/6/6 24/25/6 
f 6/8/6 25/26/7 24/27/6 
f 6/8/6 7/7/7 25/26/7 
f 7/7/7 26/28/8 25/26/7 
f 7/7/7 8/9/8 26/28/8 
f 8/9/8 27/29/9 26/28/8 
f 8/9/8 9/10/9 27/29/9 
f 9/10/9 28/30/10 27/29/9 
f 9/10/9 10/11/10 28/30/10 
f 10/11/10 29/31/11 28/30/10 
f 10/11/10 11/12/11 29/31/11 
f 11/12/11 30/32/12 29/31/11 
f 11/12/11 12/13/12 30/32/12 
f 12/13/12 31/33/13 30/32/12 
f 12/13/12 13/14/13 31/33/13 
f 13/14/13 32/34/14 31/33/13 
f 13/14/13 14/15/14 32/34/14 
f 14/15/14 33/35/15 32/34/14 
f 14/15/14 15/16/15 33/35/15 
f 15/16/15 34/36/16 33/35/15 
f 15/16/15 16/17/16 34/36/16 
f 16/17/16 35/37/17 34/36/16 
f 16/17/16 17/18/17 35/37/17 
f 17/18/17 36/38/18 35/37/17 
f 17/18/17 18/19/18 36/38/18 
f 18/19/18 37/39/19 36/38/18 
f 18/19/18 19/20/19 37/39/19 
f 19/20/19 21/22/2 37/39/19 
f 19/20/19 3/3/2 21/22/2 
f 21/22/2 38/40/3 39/41/2 
f 21/22/2 20/21/3 38/40/3 
f 20/21/3 40/42/4 38/40/3 
f 20/21/3 22/23/4 40/42/4 
f 22/23/4 41/43/5 40/42/4 
f 22/23/4 23/24/5 41/43/5 
f 23/24/5 42/44/6 41/43/5 
f 23/24/5 24/25/6 42/44/6 
f 24/27/6 43/45/7 42/46/6 
f 24/27/6 25/26/7 43/45/7 
f 25/26/7 44/47/8 43/45/7 
f 25/26/7 26/28/8 44/47/8 
f 26/28/8 45/48/9 44/47/8 
f 26/28/8 27/29/9 45/48/9 
f 27/29/9 46/49/10 45/48/9 
f 27/29/9 28/30/10 46/49/10 
f 28/30/10 47/50/20 46/49/10 
f 28/30/10 29/31/11 47/50/20 
f 29/31/11 48/51/12 47/50/20 
f 29/31/11 30/32/12 48/51/12 
f 30/32/12 49/52/13 48/51/12 
f 30/32/12 31/33/13 49/52/13 
f 31/33/13 50/53/14 49/52/13 
f 31/33/13 32/34/14 50/53/14 
f 32/34/14 51/54/15 50/53/14 
f 32/34/14 33/35/15 51/54/15 
f 33/35/15 52/55/16 51/54/15 
f 33/35/15 34/36/16 52/55/16 
f 34/36/16 53/56/17 52/55/16 
f 34/36/16 35/37/17 53/56/17 
f 35/37/17 54/57/18 53/56/17 
f 35/37/17 36/38/18 54/57/18 
f 36/38/18 55/58/19 54/57/18 
f 36/38/18 37/39/19 55/58/19 
f 37/39/19 39/41/2 55/58/19 
f 37/39/19 21/22/2 39/41/2 
f 39/41/2 56/59/3 57/60/2 
f 39/41/2 38/40/3 56/59/3 
f 38/40/3 58/61/4 56/59/3 
f 38/40/3 40/42/4 58/61/4 
f 40/42/4 59/62/5 58/61/4 
f 40/42/4 41/43/5 59/62/5 
f 41/43/5 60/63/6 59/62/5 
f 41/43/5 42/44/6 60/63/6 
f 42/46/6 61/64/7 60/65/6 
f 42/46/6 43/45/7 61/64/7 
f 43/45/7 62/66/8 61/64/7 
f 43/45/7 44/47/8 62/66/8 
f 44/47/8 63/67/9 62/66/8 
f 44/47/8 45/48/9 63/67/9 
f 45/48/9 64/68/10 63/67/9 
f 45/48/9 46/49/10 64/68/10 
f 46/49/10 65/69/11 64/68/10 
f 46/49/10 47/50/20 65/69/11 
f 47/50/20 66/70/12 65/69/11 
f 47/50/20 48/51/12 66/70/12 
f 48/51/12 67/71/13 66/70/12 
f 48/51/12 49/52/13 67/71/13 
f 49/52/13 68/72/14 67/71/13 
f 49/52/13 50/53/14 68/72/14 
f 50/53/14 69/73/15 68/72/14 
f 50/53/14 51/54/15 69/73/15 
f 51/54/15 70/74/16 69/73/15 
f 51/54/15 52/55/16 70/74/16 
f 52/55/16 71/75/17 70/74/16 
f 52/55/16 53/56/17 71/75/17 
f 53/56/17 72/76/18 71/75/17 
f 53/56/17 54/57/18 72/76/18 
f 54/57/18 73/77/19 72/76/18 
f 54/57/18 55/58/19 73/77/19 
f 55/58/19 57/60/2 73/77/19 
f 55/58/19 39/41/2 57/60/2 
f 57/60/2 74/78/3 75/79/21 
f 57/60/2 56/59/3 74/78/3 
f 56/59/3 76/80/4 74/78/3 
f 56/59/3 58/61/4 76/80/4 
f 58/61/4 77/81/5 76/80/4 
f 58/61/4 59/62/5 77/81/5 
f 59/62/5 78/82/6 77/81/5 
f 59/62/5 60/63/6 78/82/6 
f 60/65/6 79/83/7 78/84/6 
f 60/65/6 61/64/7 79/83/7 
f 61/64/7 80/85/8 79/83/7 
f 61/64/7 62/66/8 80/85/8 
f 62/66/8 81/86/9 80/85/8 
f 62/66/8 63/67/9 81/86/9 
f 63/67/9 82/87/10 81/86/9 
f 63/67/9 64/68/10 82/87/10 
f 64/68/10 83/88/11 82/87/10 
f 64/68/10 65/69/11 83/88/11 
f 65/69/11 84/89/12 83/88/11 
f 65/69/11 66/70/12 84/89/12 
f 66/70/12 85/90/13 84/89/12 
f 66/70/12 67/71/13 85/90/13 
f 67/71/13 86/91/14 85/90/13 
f 67/71/13 68/72/14 86/91/14 
f 68/72/14 87/92/15 86/91/14 
f 68/72/14 69/73/15 87/92/15 
f 69/73/15 88/93/16 87/92/15 
f 69/73/15 70/74/16 88/93/16 
f 70/74/16 89/94/17 88/93/16 
f 70/74/16 71/75/17 89/94/17 
f 71/75/17 90/95/18 89/94/17 
f 71/75/17 72/76/18 90/95/18 
f 72/76/18 91/96/19 90/95/18 
f 72/76/18 73/77/19 91/96/19 
f 73/77/19 75/79/21 91/96/19 
f 73/77/19 57/60/2 75/79/21 
f 75/79/21 92/97/3 93/98/2 
f 75/79/21 74/78/3 92/97/3 
f 74/78/3 94/99/4 92/97/3 
f 74/78/3 76/80/4 94/99/4 
f 76/80/4 95/100/5 94/99/4 
f 76/80/4 77/81/5 95/100/5 
f 77/81/5 96/101/6 95/100/5 
f 77/81/5 78/82/6 96/101/6 
f 78/84/6 97/102/7 96/103/6 
f 78/84/6 79/83/7 97/102/7 
f 79/83/7 98/104/8 97/102/7 
f 79/83/7 80/85/8 98/104/8 
f 80/85/8 99/105/9 98/104/8 
f 80/85/8 81/86/9 99/105/9 
f 81/86/9 100/106/10 99/105/9 
f 81/86/9 82/87/10 100/106/10 
f 82/87/10 101/107/11 100/106/10 
f 82/87/10 83/88/11 101/107/11 
f 83/88/11 102/108/12 101/107/11 
f 83/88/11 84/89/12 102/108/12 
f 84/89/12 103/109/13 102/108/12 
f 84/89/12 85/90/13 103/109/13 
f 85/90/13 104/110/14 103/109/13 
f 85/90/13 86/91/14 104/110/14 
f 86/91/14 105/111/15 104/110/14 
f 86/91/14 87/92/15 105/111/15 
f 87/92/15 106/112/16 105/111/15 
f 87/92/15 88/93/16 106/112/16 
f 88/93/16 107/113/17 106/112/16 
f 88/93/16 89/94/17 107/113/17 
f 89/94/17 108/114/18 107/113/17 
f 89/94/17 90/95/18 108/114/18 
f 90/95/18 109/115/19 108/114/18 
f 90/95/18 91/96/19 109/115/19 
f 91/96/19 93/98/2 109/115/19 
f 91/96/19 75/79/21 93/98/2 
s 1
f 110/116/22 93/98/22 92/97/22 
f 110/116/22 92/97/22 94/99/22 
f 110/116/22 94/99/22 95/100/22 
f 110/116/22 95/100/22 96/101/22 
f 110/116/22 96/103/22 97/102/22 
f 110/116/22 97/102/22 98/104/22 
f 110/116/22 98/104/22 99/105/22 
f 110/116/22 99/105/22 100/106/22 
f 110/116/22 100/106/22 101/107/22 
f 110/116/22 101/107/22 102/108/22 
f 110/116/22 102/108/22 103/109/22 
f 110/116/22 103/109/22 104/110/22 
f 110/116/22 104/110/22 105/111/22 
f 110/116/22 105/111/22 106/112/22 
f 110/116/22 106/112/22 107/113/22 
f 110/116/22 107/113/22 108/114/22 
f 110/116/22 108/114/22 109/115/22 
f 110/116/22 109/115/22 93/98/22 
# 216 faces

